<?xml version="1.0" encoding="utf-8"?>
<!-- Generator: Adobe Illustrator 16.0.0, SVG Export Plug-In . SVG Version: 6.00 Build 0)  -->
<!DOCTYPE svg PUBLIC "-//W3C//DTD SVG 1.1//EN" "http://www.w3.org/Graphics/SVG/1.1/DTD/svg11.dtd">
<svg version="1.1" id="Layer_1" xmlns="http://www.w3.org/2000/svg" xmlns:xlink="http://www.w3.org/1999/xlink" x="0px" y="0px"
	 width="72px" height="31.949px" viewBox="0 0 72 31.949" enable-background="new 0 0 72 31.949" xml:space="preserve">
<g>
	<path fill="#FFFFFF" d="M17.002,2.545c0-0.682-0.211-1.228-0.633-1.646c-0.423-0.418-0.965-0.628-1.629-0.628
		c-0.645,0-1.18,0.215-1.598,0.646c-0.422,0.431-0.633,0.973-0.633,1.629v5.644c-0.961-0.485-2.029-0.783-3.211-0.89
		c-0.078-0.007-0.152-0.007-0.23-0.011C8.883,7.246,8.691,7.217,8.484,7.217c-2.395,0-4.409,0.834-6.036,2.502
		C0.814,11.386,0,13.438,0,15.873c0,2.414,0.822,4.451,2.465,6.121c1.639,1.668,3.646,2.502,6.02,2.502
		c2.371,0,4.387-0.837,6.039-2.509c1.477-1.497,2.289-3.292,2.445-5.384c0.01-0.059,0.023-0.11,0.03-0.171
		c0.054-0.582,0.054-1.143,0.003-1.688V2.545z M11.328,18.732c-0.787,0.793-1.732,1.189-2.844,1.189
		c-1.109,0-2.052-0.394-2.828-1.18c-0.773-0.789-1.162-1.744-1.162-2.869s0.389-2.085,1.162-2.885
		c0.776-0.8,1.719-1.198,2.828-1.198c0.176,0,0.344-0.019,0.5-0.045c1.059,0.115,1.938,0.575,2.63,1.39
		c0.505,0.594,0.8,1.256,0.896,1.98v0.734C12.51,16.979,12.115,17.942,11.328,18.732z"/>
	<path fill="#FFFFFF" d="M21.025,0c-0.754,0-1.402,0.274-1.945,0.828c-0.545,0.555-0.816,1.218-0.816,1.983
		c0,0.769,0.271,1.43,0.816,1.983c0.543,0.553,1.191,0.828,1.945,0.828c0.752,0,1.402-0.275,1.946-0.828
		c0.544-0.554,0.816-1.215,0.816-1.983c0-0.766-0.272-1.429-0.816-1.983C22.428,0.274,21.777,0,21.025,0z"/>
	<path fill="#FFFFFF" d="M21.025,7.217c-0.666,0-1.201,0.211-1.611,0.627C19,8.262,18.797,8.812,18.797,9.492v12.731
		c0,0.677,0.203,1.228,0.617,1.645c0.41,0.419,0.945,0.628,1.611,0.628s1.207-0.209,1.631-0.628c0.42-0.417,0.633-0.968,0.633-1.645
		V9.492C23.289,7.977,22.533,7.217,21.025,7.217z"/>
	<path fill="#FFFFFF" d="M37.229,11.893c1.484,0,2.229-0.768,2.229-2.306c0-0.676-0.207-1.225-0.616-1.641
		c-0.409-0.419-0.948-0.628-1.612-0.628h-7.619V5.524c0-0.679-0.207-1.233-0.632-1.661c-0.423-0.431-0.964-0.643-1.63-0.643
		c-0.664,0-1.205,0.212-1.614,0.643c-0.407,0.428-0.617,0.982-0.617,1.661v11.653c0,2.078,0.688,3.816,2.063,5.218
		c1.375,1.4,3.082,2.101,5.125,2.101c2.018,0,3.715-0.706,5.089-2.117c1.377-1.412,2.063-3.145,2.063-5.201v-0.303
		c0-0.659-0.209-1.198-0.633-1.629c-0.418-0.427-0.952-0.642-1.596-0.642c-0.643,0-1.182,0.215-1.615,0.642
		c-0.432,0.431-0.648,0.97-0.648,1.629v0.303c0,0.768-0.252,1.417-0.764,1.948c-0.514,0.531-1.143,0.796-1.896,0.796
		s-1.394-0.265-1.914-0.796c-0.52-0.531-0.781-1.181-0.781-1.948v-5.285H37.229z"/>
	<path fill="#FFFFFF" d="M48.829,11.79c0.665,0,1.208-0.21,1.628-0.626c0.424-0.418,0.633-0.965,0.633-1.644
		s-0.209-1.233-0.633-1.659c-0.42-0.431-0.963-0.645-1.628-0.645c-2.396,0-4.409,0.834-6.038,2.502
		c-1.629,1.667-2.445,3.719-2.445,6.154c0,2.414,0.822,4.451,2.463,6.121c1.642,1.668,3.647,2.502,6.021,2.502
		c0.665,0,1.208-0.209,1.628-0.626c0.424-0.417,0.633-0.966,0.633-1.644c0-0.68-0.209-1.232-0.633-1.66
		c-0.42-0.432-0.963-0.645-1.628-0.645c-1.108,0-2.052-0.394-2.829-1.18c-0.775-0.789-1.16-1.744-1.16-2.869s0.385-2.085,1.16-2.885
		C46.777,12.188,47.721,11.79,48.829,11.79z"/>
	<path fill="#FFFFFF" d="M71.387,28.019c-0.412-0.428-0.949-0.641-1.617-0.641h-0.131c-0.754,0-1.391-0.268-1.912-0.798
		c-0.521-0.535-0.783-1.184-0.783-1.953V14.512c0-2.06-0.693-3.787-2.082-5.191c-1.383-1.402-3.087-2.104-5.104-2.104
		c-0.953,0-1.852,0.182-2.693,0.541V2.551c0-0.681-0.213-1.229-0.631-1.65c-0.428-0.42-0.969-0.63-1.633-0.63
		s-1.204,0.21-1.613,0.628c-0.41,0.419-0.615,0.965-0.615,1.646v19.679c0,0.677,0.205,1.228,0.615,1.646
		c0.409,0.417,0.949,0.626,1.613,0.626s1.205-0.209,1.633-0.628c0.418-0.419,0.631-0.968,0.631-1.648v-7.711
		c0-0.771,0.263-1.415,0.783-1.938c0.528-0.52,1.168-0.781,1.928-0.781c0.732,0,1.365,0.267,1.889,0.798
		c0.526,0.532,0.789,1.171,0.789,1.916v10.115c0,2.059,0.686,3.797,2.062,5.21c1.375,1.415,3.084,2.12,5.123,2.12h0.131
		c0.668,0,1.205-0.209,1.617-0.625C71.795,30.904,72,30.357,72,29.681C72,29.002,71.795,28.448,71.387,28.019z"/>
</g>
</svg>
