<?xml version="1.0" encoding="utf-8"?>
<!-- Generator: Adobe Illustrator 16.0.0, SVG Export Plug-In . SVG Version: 6.00 Build 0)  -->
<!DOCTYPE svg PUBLIC "-//W3C//DTD SVG 1.1//EN" "http://www.w3.org/Graphics/SVG/1.1/DTD/svg11.dtd">
<svg version="1.1" id="Layer_1" xmlns="http://www.w3.org/2000/svg" xmlns:xlink="http://www.w3.org/1999/xlink" x="0px" y="0px"
	 width="259.021px" height="70.335px" viewBox="0 0 259.021 70.335" enable-background="new 0 0 259.021 70.335"
	 xml:space="preserve">
<g>
	<g>
		<path fill="#FFFFFF" d="M8.075,49.651c2.62-0.111,4.779-1.876,5.513-4.246h0.001c0.172-0.454,0.253-1.004,0.265-1.613
			c0.004-0.142,0.005-0.283-0.001-0.428c0-0.007-0.002-0.014-0.001-0.021c0.142-2.521-3.808-11.501-3.808-11.501
			C5.901,20.043,11.897,9.793,11.897,9.793C-6.628,25.681,2.013,45.276,2.013,45.276l0.001-0.001
			C2.761,47.9,5.229,49.771,8.075,49.651"/>
		<path fill="#FFFFFF" d="M14.563,11.253c0.469,2.897,2.716,5.062,5.445,5.565v0c0.527,0.13,1.149,0.147,1.827,0.081
			c0.158-0.015,0.316-0.032,0.476-0.057c0.007-0.001,0.014-0.004,0.021-0.005c2.821-0.176,12.277-5.749,12.277-5.749
			c12.562-6.16,24.742-0.851,24.742-0.851C39.254-8.246,18.625,3.942,18.625,3.942v0.001C15.808,5.119,14.054,8.107,14.563,11.253"
			/>
		<path fill="#FFFFFF" d="M56.721,14.505c-2.445,0.692-4.085,2.842-4.246,5.24l0,0c-0.06,0.466-0.013,1.002,0.112,1.581
			c0.028,0.134,0.059,0.269,0.097,0.402c0.001,0.006,0.005,0.013,0.007,0.019c0.432,2.41,6.168,9.99,6.168,9.99
			c6.551,10.195,3.196,21.203,3.196,21.203c13.903-19.134,1.362-35.668,1.362-35.668h-0.001
			C62.123,14.965,59.378,13.754,56.721,14.505"/>
		<path fill="#FFFFFF" d="M31.416,44.76c0,3.565-2.89,6.455-6.455,6.455s-6.456-2.89-6.456-6.455s2.891-6.456,6.456-6.456
			S31.416,41.194,31.416,44.76"/>
		<path fill="#FFFFFF" d="M58.903,50.304c-1.294-12.76-13.646-12.76-15.322-12.76c-4.509,0-8.174,3.525-8.174,7.216
			c0,3.092,2.1,5.692,4.952,6.454l0,0.001c8.277,2.749,1.73,9.343,1.73,9.343c-10.882,9.974-36.412-5.209-36.412-5.209
			c19.283,24.524,43.73,11.564,43.73,11.564C59.353,61.72,58.903,50.304,58.903,50.304"/>
	</g>
	<g>
		<g>
			<polygon fill="#FFFFFF" points="85.314,49.169 82.47,49.169 82.47,48.142 89.395,48.142 89.395,49.169 86.536,49.169 
				86.536,57.494 85.314,57.494 			"/>
			<path fill="#FFFFFF" d="M94.247,54.358c0.028,1.65,1.082,2.33,2.303,2.33c0.874,0,1.402-0.15,1.86-0.346l0.208,0.874
				c-0.429,0.194-1.165,0.415-2.232,0.415c-2.068,0-3.304-1.359-3.304-3.385s1.194-3.621,3.15-3.621
				c2.192,0,2.775,1.928,2.775,3.163c0,0.25-0.028,0.444-0.042,0.569H94.247z M97.827,53.483c0.014-0.775-0.319-1.983-1.693-1.983
				c-1.234,0-1.774,1.138-1.873,1.983H97.827z"/>
			<path fill="#FFFFFF" d="M109.465,57.243c-0.319,0.168-1.027,0.389-1.929,0.389c-2.026,0-3.344-1.373-3.344-3.426
				c0-2.068,1.415-3.566,3.608-3.566c0.721,0,1.359,0.181,1.693,0.347l-0.278,0.944c-0.292-0.167-0.749-0.32-1.415-0.32
				c-1.541,0-2.374,1.139-2.374,2.539c0,1.555,1,2.512,2.332,2.512c0.693,0,1.152-0.18,1.5-0.332L109.465,57.243z"/>
			<path fill="#FFFFFF" d="M115.053,47.644h1.22v4.189h0.029c0.194-0.348,0.499-0.652,0.874-0.859
				c0.36-0.209,0.791-0.348,1.249-0.348c0.902,0,2.345,0.555,2.345,2.871v3.997h-1.221v-3.856c0-1.084-0.401-1.998-1.554-1.998
				c-0.792,0-1.416,0.555-1.638,1.221c-0.069,0.165-0.084,0.346-0.084,0.582v4.052h-1.22V47.644z"/>
			<path fill="#FFFFFF" d="M126.912,52.597c0-0.695-0.013-1.264-0.055-1.818h1.082l0.07,1.109h0.027
				c0.334-0.639,1.111-1.262,2.221-1.262c0.928,0,2.371,0.555,2.371,2.857v4.011h-1.221v-3.872c0-1.082-0.402-1.982-1.554-1.982
				c-0.804,0-1.43,0.568-1.637,1.248c-0.056,0.152-0.085,0.359-0.085,0.568v4.038h-1.221V52.597z"/>
			<path fill="#FFFFFF" d="M140.132,48.89c0.014,0.418-0.293,0.751-0.777,0.751c-0.43,0-0.736-0.333-0.736-0.751
				c0-0.429,0.32-0.762,0.764-0.762C139.839,48.128,140.132,48.461,140.132,48.89 M138.772,50.778h1.221v6.716h-1.221V50.778z"/>
			<path fill="#FFFFFF" d="M150.966,57.243c-0.318,0.168-1.025,0.389-1.928,0.389c-2.025,0-3.344-1.373-3.344-3.426
				c0-2.068,1.415-3.566,3.607-3.566c0.722,0,1.359,0.181,1.692,0.347l-0.276,0.944c-0.292-0.167-0.751-0.32-1.416-0.32
				c-1.54,0-2.373,1.139-2.373,2.539c0,1.555,1,2.512,2.332,2.512c0.693,0,1.15-0.18,1.498-0.332L150.966,57.243z"/>
			<path fill="#FFFFFF" d="M160.273,57.494l-0.096-0.847h-0.041c-0.376,0.527-1.098,1-2.055,1c-1.359,0-2.054-0.959-2.054-1.93
				c0-1.623,1.442-2.512,4.038-2.498v-0.138c0-0.556-0.152-1.554-1.527-1.554c-0.625,0-1.277,0.193-1.748,0.498l-0.277-0.805
				c0.556-0.359,1.359-0.596,2.206-0.596c2.054,0,2.553,1.4,2.553,2.747v2.512c0,0.582,0.028,1.151,0.112,1.609H160.273z
				 M160.093,54.065c-1.332-0.026-2.844,0.209-2.844,1.514c0,0.791,0.527,1.166,1.15,1.166c0.875,0,1.43-0.555,1.624-1.125
				c0.042-0.125,0.069-0.264,0.069-0.389V54.065z"/>
			<rect x="167.402" y="47.644" fill="#FFFFFF" width="1.221" height="9.851"/>
			<path fill="#FFFFFF" d="M188.515,57.188c-0.443,0.223-1.33,0.443-2.469,0.443c-2.637,0-4.621-1.664-4.621-4.73
				c0-2.928,1.984-4.912,4.885-4.912c1.165,0,1.9,0.25,2.22,0.416l-0.292,0.985c-0.458-0.222-1.109-0.388-1.887-0.388
				c-2.191,0-3.648,1.4-3.648,3.857c0,2.289,1.318,3.76,3.594,3.76c0.734,0,1.483-0.153,1.969-0.389L188.515,57.188z"/>
			<rect x="194.145" y="47.644" fill="#FFFFFF" width="1.222" height="9.851"/>
			<path fill="#FFFFFF" d="M207.658,54.081c0,2.482-1.721,3.566-3.345,3.566c-1.816,0-3.219-1.332-3.219-3.455
				c0-2.249,1.472-3.566,3.331-3.566C206.354,50.626,207.658,52.026,207.658,54.081 M202.33,54.149c0,1.471,0.847,2.582,2.041,2.582
				c1.164,0,2.039-1.096,2.039-2.609c0-1.138-0.57-2.58-2.012-2.58C202.955,51.542,202.33,52.874,202.33,54.149"/>
			<path fill="#FFFFFF" d="M214.828,48.85v1.929h1.748v0.93h-1.748v3.621c0,0.833,0.235,1.305,0.916,1.305
				c0.319,0,0.555-0.041,0.707-0.084l0.056,0.916c-0.235,0.098-0.61,0.166-1.083,0.166c-0.568,0-1.025-0.18-1.317-0.512
				c-0.347-0.361-0.472-0.958-0.472-1.748v-3.664h-1.04v-0.93h1.04v-1.609L214.828,48.85z"/>
			<path fill="#FFFFFF" d="M222.109,47.644h1.221v4.189h0.029c0.193-0.348,0.498-0.652,0.873-0.859
				c0.361-0.209,0.791-0.348,1.248-0.348c0.902,0,2.346,0.555,2.346,2.871v3.997h-1.221v-3.856c0-1.084-0.402-1.998-1.555-1.998
				c-0.791,0-1.414,0.555-1.637,1.221c-0.07,0.165-0.084,0.346-0.084,0.582v4.052h-1.221V47.644z"/>
			<path fill="#FFFFFF" d="M235.329,48.89c0.015,0.418-0.29,0.751-0.776,0.751c-0.431,0-0.736-0.333-0.736-0.751
				c0-0.429,0.32-0.762,0.764-0.762C235.039,48.128,235.329,48.461,235.329,48.89 M233.968,50.778h1.221v6.716h-1.221V50.778z"/>
			<path fill="#FFFFFF" d="M241.375,52.597c0-0.695-0.013-1.264-0.055-1.818h1.082l0.07,1.109h0.027
				c0.333-0.639,1.11-1.262,2.221-1.262c0.929,0,2.372,0.555,2.372,2.857v4.011h-1.222v-3.872c0-1.082-0.401-1.982-1.553-1.982
				c-0.805,0-1.43,0.568-1.637,1.248c-0.057,0.152-0.084,0.359-0.084,0.568v4.038h-1.223V52.597z"/>
			<path fill="#FFFFFF" d="M259.021,50.778c-0.027,0.486-0.055,1.026-0.055,1.845v3.899c0,1.541-0.305,2.484-0.957,3.066
				c-0.652,0.611-1.596,0.805-2.443,0.805c-0.805,0-1.691-0.193-2.232-0.555l0.305-0.93c0.444,0.278,1.139,0.527,1.971,0.527
				c1.248,0,2.164-0.652,2.164-2.345v-0.749h-0.027c-0.375,0.625-1.096,1.123-2.137,1.123c-1.666,0-2.858-1.414-2.858-3.273
				c0-2.277,1.483-3.566,3.024-3.566c1.166,0,1.803,0.609,2.096,1.164h0.027l0.055-1.012H259.021z M257.759,53.429
				c0-0.209-0.014-0.389-0.07-0.555c-0.222-0.709-0.818-1.291-1.705-1.291c-1.166,0-1.999,0.984-1.999,2.539
				c0,1.318,0.667,2.416,1.985,2.416c0.748,0,1.428-0.474,1.691-1.25c0.068-0.208,0.098-0.445,0.098-0.652V53.429z"/>
		</g>
		<g>
			<path fill="#FFFFFF" d="M127.201,26.562c1.268,1.536,1.986,3.225,2.159,5.067c0.173,1.844-0.106,3.552-0.835,5.127
				c-0.729,1.573-1.843,2.898-3.34,3.973c-1.497,1.076-3.283,1.613-5.356,1.613H82.046V10.781h37.782
				c2.073,0,3.859,0.539,5.356,1.613c1.498,1.076,2.611,2.4,3.34,3.974c0.729,1.575,1.008,3.283,0.835,5.126
				C129.187,23.336,128.468,25.027,127.201,26.562 M88.958,23.105h30.87c0.883,0,1.546-0.277,1.987-0.834
				c0.44-0.557,0.662-1.18,0.662-1.872s-0.222-1.314-0.662-1.872c-0.441-0.556-1.104-0.834-1.987-0.834h-30.87V23.105z
				 M88.958,35.431h30.87c0.883,0,1.546-0.278,1.987-0.835c0.44-0.555,0.662-1.18,0.662-1.872c0-0.691-0.222-1.314-0.662-1.872
				c-0.441-0.555-1.104-0.833-1.987-0.833h-30.87V35.431z"/>
			<path fill="#FFFFFF" d="M143.039,42.343c-1.574,0-3.053-0.297-4.436-0.893c-1.382-0.595-2.582-1.401-3.6-2.42
				c-1.018-1.016-1.824-2.217-2.418-3.599c-0.596-1.382-0.895-2.86-0.895-4.434c0-1.575,0.299-3.053,0.895-4.435
				c0.594-1.382,1.4-2.581,2.418-3.601c1.018-1.016,2.218-1.822,3.6-2.417c1.383-0.595,2.861-0.893,4.436-0.893h19.062
				c1.574,0,3.054,0.298,4.436,0.893c1.383,0.596,2.582,1.401,3.6,2.417c1.018,1.02,1.823,2.219,2.418,3.601
				c0.596,1.382,0.894,2.86,0.894,4.435c0,1.574-0.298,3.052-0.894,4.434c-0.595,1.382-1.4,2.583-2.418,3.599
				c-1.018,1.019-2.217,1.825-3.6,2.42c-1.382,0.596-2.861,0.893-4.436,0.893H143.039z M143.039,26.562
				c-1.23,0-2.275,0.431-3.14,1.295c-0.864,0.865-1.296,1.911-1.296,3.14c0,1.229,0.432,2.274,1.296,3.138
				c0.864,0.864,1.909,1.296,3.14,1.296h19.062c1.229,0,2.275-0.432,3.139-1.296c0.865-0.863,1.297-1.908,1.297-3.138
				c0-1.229-0.432-2.275-1.297-3.14c-0.863-0.864-1.91-1.295-3.139-1.295H143.039z"/>
			<path fill="#FFFFFF" d="M187.386,42.343c-1.574,0-3.053-0.297-4.436-0.893c-1.382-0.595-2.582-1.401-3.6-2.42
				c-1.018-1.016-1.824-2.217-2.418-3.599c-0.596-1.382-0.893-2.86-0.893-4.434c0-1.575,0.297-3.053,0.893-4.435
				c0.594-1.382,1.4-2.581,2.418-3.601c1.018-1.016,2.218-1.822,3.6-2.417c1.383-0.595,2.861-0.893,4.436-0.893h19.064
				c1.573,0,3.052,0.298,4.434,0.893c1.383,0.596,2.582,1.401,3.6,2.417c1.017,1.02,1.824,2.219,2.418,3.601
				c0.596,1.382,0.895,2.86,0.895,4.435c0,1.574-0.299,3.052-0.895,4.434c-0.594,1.382-1.401,2.583-2.418,3.599
				c-1.018,1.019-2.217,1.825-3.6,2.42c-1.382,0.596-2.86,0.893-4.434,0.893H187.386z M187.386,26.562
				c-1.23,0-2.275,0.431-3.139,1.295c-0.864,0.865-1.297,1.911-1.297,3.14c0,1.229,0.433,2.274,1.297,3.138
				c0.863,0.864,1.908,1.296,3.139,1.296h19.064c1.227,0,2.273-0.432,3.137-1.296c0.865-0.863,1.297-1.908,1.297-3.138
				c0-1.229-0.432-2.275-1.297-3.14c-0.863-0.864-1.91-1.295-3.137-1.295H187.386z"/>
			<path fill="#FFFFFF" d="M231.733,19.65h15.378c1.535,0,2.994,0.298,4.377,0.893c1.383,0.596,2.592,1.402,3.629,2.419
				c1.037,1.017,1.852,2.217,2.447,3.599c0.596,1.382,0.893,2.861,0.893,4.436v11.346h-6.969V30.997c0-1.23-0.424-2.275-1.267-3.14
				c-0.845-0.864-1.882-1.295-3.11-1.295h-15.378c-1.229,0-2.274,0.432-3.14,1.295c-0.863,0.865-1.295,1.91-1.295,3.14v11.346
				h-6.912V30.997c0-1.575,0.298-3.053,0.893-4.436c0.596-1.382,1.401-2.582,2.42-3.599c1.018-1.017,2.217-1.824,3.6-2.419
				C228.681,19.948,230.158,19.65,231.733,19.65"/>
		</g>
	</g>
</g>
</svg>
